<svg width="50" height="50" viewBox="0 0 50 50" fill="none" xmlns="http://www.w3.org/2000/svg">
<path d="M0 12H50V38C50 40.2091 48.2091 42 46 42H0V12Z" fill="#93407D"/>
<path d="M0 12H50V38C50 40.2091 48.2091 42 46 42H0V12Z" fill="url(#paint0_linear_3358_13415)" fill-opacity="0.2"/>
<path d="M4 21C1.79086 21 2.49754e-07 19.2091 5.5784e-07 17L1.25514e-06 12C1.56323e-06 9.79086 1.79086 8 4 8L50 8.00001V17C50 19.2091 48.2091 21 46 21L4 21Z" fill="#FC787D"/>
<path d="M4 21C1.79086 21 2.49754e-07 19.2091 5.5784e-07 17L1.25514e-06 12C1.56323e-06 9.79086 1.79086 8 4 8L50 8.00001V17C50 19.2091 48.2091 21 46 21L4 21Z" fill="url(#paint1_linear_3358_13415)" fill-opacity="0.2"/>
<path d="M0 16H50V20C50 22.2091 48.2091 24 46 24H4C1.79086 24 0 22.2091 0 20V16Z" fill="#911E3D"/>
<path d="M0 16H50V20C50 22.2091 48.2091 24 46 24H4C1.79086 24 0 22.2091 0 20V16Z" fill="url(#paint2_linear_3358_13415)" fill-opacity="0.2"/>
<path d="M41 24C41 25.6569 39.6569 27 38 27C36.3431 27 35 25.6569 35 24C35 22.3431 36.3431 21 38 21C39.6569 21 41 22.3431 41 24Z" fill="white"/>
<path d="M33 29H38C40.7614 29 43 31.2386 43 34H38C35.2386 34 33 31.7614 33 29Z" fill="white"/>
<defs>
<linearGradient id="paint0_linear_3358_13415" x1="0" y1="12" x2="53.2544" y2="34.1893" gradientUnits="userSpaceOnUse">
<stop stop-color="white"/>
<stop offset="1" stop-color="white" stop-opacity="0"/>
</linearGradient>
<linearGradient id="paint1_linear_3358_13415" x1="0" y1="8" x2="32.475" y2="39.226" gradientUnits="userSpaceOnUse">
<stop stop-color="white"/>
<stop offset="1" stop-color="white" stop-opacity="0"/>
</linearGradient>
<linearGradient id="paint2_linear_3358_13415" x1="0" y1="16" x2="18.1612" y2="44.3768" gradientUnits="userSpaceOnUse">
<stop stop-color="white"/>
<stop offset="1" stop-color="white" stop-opacity="0"/>
</linearGradient>
</defs>
</svg>
